#File generated from solving marker data for model walk1.trc
name solved_motion
datacolumns 107
datarows 5
range 0.6250000000 0.6580000000
units unknown
enforce_loops no
enforce_constraints no
endheader

time	lower_torso_TX	lower_torso_TY	lower_torso_TZ	lower_torso_RX	lower_torso_RY	lower_torso_RZ	lumbar_roll	lumbar_yaw	lumbar_pitch	neck_roll	neck_yaw	neck_pitch	arm_add_r	arm_rot_r	arm_flex_r	elbow_flex_r	pro_sup_r	wrist_dev_r	wrist_flex_r	arm_add_l	arm_rot_l	arm_flex_l	elbow_flex_l	pro_sup_l	wrist_dev_l	wrist_flex_l	hip_add_r	hip_rot_r	hip_flex_r	ankle_flex_r	subt_angle_r	toe_angle_r	hip_add_l	hip_rot_l	hip_flex_l	knee_flex_l	ankle_flex_l	subt_angle_l	toe_angle_l	knee_flex_r	R.Shoulder_px	R.Shoulder_py	R.Shoulder_pz	R.Scapula_px	R.Scapula_py	R.Scapula_pz	L.Shoulder_px	L.Shoulder_py	L.Shoulder_pz	R.ASIS_px	R.ASIS_py	R.ASIS_pz	V.Sacral_px	V.Sacral_py	V.Sacral_pz	L.ASIS_px	L.ASIS_py	L.ASIS_pz	R.Elbow_px	R.Elbow_py	R.Elbow_pz	R.Wrist_px	R.Wrist_py	R.Wrist_pz	L.Elbow_px	L.Elbow_py	L.Elbow_pz	L.Wrist_px	L.Wrist_py	L.Wrist_pz	R.Thigh_px	R.Thigh_py	R.Thigh_pz	R.Knee_px	R.Knee_py	R.Knee_pz	R.Shank_px	R.Shank_py	R.Shank_pz	R.Ankle_px	R.Ankle_py	R.Ankle_pz	R.Heel_px	R.Heel_py	R.Heel_pz	R.Toe_px	R.Toe_py	R.Toe_pz	L.Thigh_px	L.Thigh_py	L.Thigh_pz	L.Knee_px	L.Knee_py	L.Knee_pz	L.Shank_px	L.Shank_py	L.Shank_pz	L.Ankle_px	L.Ankle_py	L.Ankle_pz	L.Heel_px	L.Heel_py	L.Heel_pz	L.Toe_px	L.Toe_py	L.Toe_pz	
0.6250000000	-0.9361685746	0.2831196552	0.7263495015	89.5173499132	-9.1771088574	2.1232431015	1.2598968340	10.3947593419	-25.1775217685	0.0000000000	0.0000000000	0.0000000000	-46.9995928242	-10.0000000000	20.4850143765	41.1548856365	50.0007876308	0.0000000000	0.0000000000	-27.1715866645	10.0000000000	8.5562222301	29.0874992219	70.0000000000	0.0000000000	0.0000000000	5.1431028985	15.9753893867	35.8892055491	30.0000000000	13.7754216650	0.0000000000	0.0958786616	14.6459398291	54.3141925818	102.8077095040	14.0772895800	13.2031380226	-0.0150000000	94.2160279865	-0.8856715700	0.0359754300	1.1197111800	-1.0521375700	0.1788591500	1.1315291700	-0.9095637200	0.4928795800	1.1728332500	-0.9246778000	0.1427514500	0.7512467700	-1.1323098100	0.3195053100	0.8045441300	-0.8808950800	0.4175794100	0.7479038100	-0.9318672500	-0.1172782700	0.9016865200	-0.7252990700	-0.2022231600	0.8017044100	-0.9921138300	0.6375340000	0.9424744900	-0.8723936800	0.7163901400	0.7287315100	-0.8792132600	0.0652023500	0.4236979100	-0.8087008100	0.1439385700	0.3081786500	-0.9360956400	0.0520361700	0.1790886200	-1.1378105500	0.0919294800	0.0842049600	-1.2025582300	0.1156920400	0.1083461500	-1.0540268600	0.1562871700	0.0441397800	-0.7076541700	0.4674244100	0.4661330000	-0.6817038000	0.3863671600	0.4080488900	-0.8306884800	0.5416134000	0.2214655800	-0.9485174000	0.5222874100	0.1303232700	-1.0265882600	0.5069714700	0.1519270600	-0.8861580200	0.4510120800	0.0675133000	
0.6330000000	-0.9314218195	0.2841807514	0.7259499603	89.5564669930	-9.0979630284	1.8766455109	1.1314937241	10.5854287471	-25.0586987663	0.0000000000	0.0000000000	0.0000000000	-47.3443963689	-10.0000000000	21.2684369446	40.2360336440	50.0007876308	0.0000000000	0.0000000000	-27.4252209183	10.0000000000	8.1755553925	28.2318732488	70.0000000000	0.0000000000	0.0000000000	4.5139440312	15.5588214866	35.9000374795	30.0000000000	14.8519349220	0.0000000000	1.0689372978	15.3121487527	55.4706204238	101.8802253727	14.0622313454	13.6046074634	-0.0160000000	94.3197727298	-0.8792517100	0.0369584000	1.1207946800	-1.0456773700	0.1800346700	1.1315596900	-0.9033991700	0.4944079900	1.1728319100	-0.9209219400	0.1423389000	0.7506466100	-1.1238521700	0.3213508600	0.8048289200	-0.8815656100	0.4186466700	0.7467033100	-0.9204000900	-0.1162159300	0.9012656900	-0.7146270800	-0.2003165900	0.8024331700	-0.9898539400	0.6387350500	0.9440327800	-0.8754539800	0.7228275100	0.7295698200	-0.8766769400	0.0643138200	0.4220032300	-0.8069576400	0.1408366100	0.3066237800	-0.9366619900	0.0504659800	0.1796036700	-1.1378997800	0.0941827000	0.0854011800	-1.2031654100	0.1153433200	0.1106210700	-1.0527775900	0.1567566500	0.0444002500	-0.6949950000	0.4635034800	0.4697437400	-0.6784961500	0.3825291100	0.4101232600	-0.8105632900	0.5402362700	0.2203061200	-0.9288447900	0.5170752600	0.1277330700	-1.0081384300	0.5090331100	0.1479059300	-0.8652472500	0.4473548900	0.0666143700	
0.6420000000	-0.9246500155	0.2850029707	0.7263558268	89.2252668223	-9.2408693930	2.2447301024	1.1389868483	11.6577237258	-25.8000019025	0.0000000000	0.0000000000	0.0000000000	-47.9725329120	-10.0000000000	20.2055049815	41.9323176361	50.0007876308	0.0000000000	0.0000000000	-27.2919688252	10.0000000000	8.1349617383	27.8189499326	70.0000000000	0.0000000000	0.0000000000	4.4658969627	15.2872981063	34.8380841236	30.0000000000	15.6334264782	0.0000000000	0.9646796488	15.7192834716	55.9719124360	101.2695367616	13.9858127439	15.1796623032	-0.0170000000	94.1868314889	-0.8616935400	0.0437350000	1.1178929400	-1.0386367200	0.1813399700	1.1320860600	-0.8980600000	0.4946151700	1.1727529300	-0.9136762700	0.1428940900	0.7509366500	-1.1176782200	0.3233912000	0.8035872200	-0.8774449500	0.4180466600	0.7459041100	-0.9107503100	-0.1160332000	0.9009125400	-0.7020220900	-0.1963211500	0.8038070700	-0.9860404700	0.6396124900	0.9455387600	-0.8776333600	0.7259857200	0.7294831500	-0.8728464400	0.0644097000	0.4206280500	-0.8057720300	0.1386491100	0.3045650900	-0.9354974400	0.0497402100	0.1787881300	-1.1376771200	0.0937645900	0.0870171800	-1.2015268600	0.1163090500	0.1111043500	-1.0528342300	0.1571628600	0.0441980500	-0.6850609700	0.4622109700	0.4731114500	-0.6583294700	0.3806103200	0.4164110700	-0.7932551900	0.5369400000	0.2196229900	-0.9067214400	0.5164992100	0.1242579200	-0.9906787700	0.5095148000	0.1429858100	-0.8471917700	0.4445163600	0.0663350000	
0.6500000000	-0.9164255851	0.2839468812	0.7260114180	89.7327046892	-10.2189008155	2.4300050863	0.2268052993	12.7357260675	-25.5049199759	0.0000000000	0.0000000000	0.0000000000	-48.1425176654	-10.0000000000	19.7692118086	42.3239756296	50.0007876308	0.0000000000	0.0000000000	-27.3704677596	10.0000000000	7.5210769562	27.5313828213	70.0000000000	0.0000000000	0.0000000000	4.2548158433	16.3679258211	34.2009329318	30.0000000000	17.2022028221	0.0000000000	1.1861620396	15.4876039542	56.0824489410	100.3948130906	14.6699489707	13.4322364540	-0.0180000000	94.4418357962	-0.8565299100	0.0442569600	1.1185925300	-1.0310537100	0.1804395000	1.1312949200	-0.8925534700	0.4963067600	1.1725410200	-0.9080289900	0.1436634100	0.7502102100	-1.1098278800	0.3251773100	0.8037479900	-0.8645621900	0.4162127100	0.7473392300	-0.9033207400	-0.1159165000	0.9032542700	-0.6906793200	-0.1955086100	0.8045451700	-0.9846840800	0.6401480700	0.9467238200	-0.8770678700	0.7306910400	0.7288942900	-0.8695498000	0.0638562700	0.4193940100	-0.7980483400	0.1393317100	0.3012041600	-0.9356657100	0.0495262700	0.1786814700	-1.1372878400	0.0937909900	0.0883816700	-1.1989744900	0.1156073500	0.1127165100	-1.0529129600	0.1575737600	0.0445401500	-0.6755263700	0.4576201800	0.4765805100	-0.6454072900	0.3740258800	0.4184127800	-0.7749182100	0.5349397600	0.2188936000	-0.8909801000	0.5172608000	0.1216280700	-0.9712141100	0.5105040000	0.1377740300	-0.8245352800	0.4436507000	0.0648274900	
0.6580000000	-0.9098885054	0.2841172362	0.7262120208	89.5531650308	-10.6476385832	2.4433008917	0.1223301029	13.5957036006	-25.6093689022	0.0000000000	0.0000000000	0.0000000000	-48.0435757553	-10.0000000000	20.6853931143	41.5653080818	50.0007876308	0.0000000000	0.0000000000	-27.2511722946	10.0000000000	7.1667061074	26.6989203726	70.0000000000	0.0000000000	0.0000000000	4.2505777007	16.2222125962	33.6422955961	30.0000000000	15.8764357258	0.0000000000	1.1353530870	15.8488329602	56.4661398894	99.5072234654	15.1295964432	13.5176500735	-0.0190000000	94.4028584341	-0.8489006300	0.0466415700	1.1176938500	-1.0230944800	0.1824291700	1.1313851300	-0.8866200600	0.4978352400	1.1720521200	-0.9029179700	0.1439083100	0.7506179800	-1.1025053700	0.3267864700	0.8027827100	-0.8559520300	0.4164958500	0.7472176500	-0.8891781600	-0.1134292400	0.9005883800	-0.6774415300	-0.1899826500	0.8040882600	-0.9809252900	0.6407132000	0.9473706700	-0.8798825700	0.7338642000	0.7302395600	-0.8669516600	0.0625346200	0.4181116900	-0.8000784900	0.1359951200	0.3001190800	-0.9306209700	0.0494778300	0.1767926300	-1.1344429900	0.0954185900	0.0895125200	-1.2012662400	0.1188700300	0.1160628700	-1.0527819800	0.1577312000	0.0444518500	-0.6658911700	0.4542226600	0.4796503900	-0.6401912200	0.3728244000	0.4205508100	-0.7588186600	0.5326707200	0.2181364400	-0.8747328500	0.5167009900	0.1201271500	-0.9527220500	0.5104191000	0.1319844200	-0.8060345500	0.4415269500	0.0640533000	
